<svg width="1956" height="405" viewBox="0 0 1956 405" fill="none" xmlns="http://www.w3.org/2000/svg">
<mask id="path-1-outside-1_21_21" maskUnits="userSpaceOnUse" x="9" y="89" width="1934" height="308" fill="black">
<rect fill="white" x="9" y="89" width="1934" height="308"/>
<path d="M119.317 321.6C97.1168 321.6 77.9168 317 61.7168 307.8C45.5168 298.4 33.0168 285.2 24.2168 268.2C15.4168 251 11.0168 230.7 11.0168 207.3C11.0168 184.1 15.6168 163.9 24.8168 146.7C34.0168 129.5 46.9168 116.2 63.5168 106.8C80.1168 97.2 99.4168 92.4 121.417 92.4C140.017 92.4 156.517 95.8 170.917 102.6C185.517 109.2 197.417 118.6 206.617 130.8C215.817 143 221.517 157.4 223.717 174H172.417C169.217 162.8 163.017 154.2 153.817 148.2C144.817 142.2 133.617 139.2 120.217 139.2C108.217 139.2 97.8168 141.9 89.0168 147.3C80.4168 152.7 73.8168 160.5 69.2168 170.7C64.6168 180.7 62.3168 192.8 62.3168 207C62.3168 220.8 64.6168 232.8 69.2168 243C74.0168 253.2 80.7168 261.1 89.3168 266.7C98.1168 272.1 108.417 274.8 120.217 274.8C133.817 274.8 145.317 271.7 154.717 265.5C164.317 259.1 170.617 250.4 173.617 239.4H224.017C221.417 255.8 215.317 270.2 205.717 282.6C196.317 295 184.217 304.6 169.417 311.4C154.617 318.2 137.917 321.6 119.317 321.6ZM242.72 242.7C242.72 226.9 246.22 213.1 253.22 201.3C260.42 189.3 270.22 180 282.62 173.4C295.22 166.8 309.52 163.5 325.52 163.5C341.52 163.5 355.72 166.8 368.12 173.4C380.52 180 390.22 189.3 397.22 201.3C404.42 213.1 408.02 226.9 408.02 242.7C408.02 258.5 404.42 272.3 397.22 284.1C390.22 295.9 380.52 305.1 368.12 311.7C355.72 318.3 341.52 321.6 325.52 321.6C309.52 321.6 295.22 318.3 282.62 311.7C270.22 305.1 260.42 295.9 253.22 284.1C246.22 272.3 242.72 258.5 242.72 242.7ZM289.22 242.4C289.22 250 290.72 256.7 293.72 262.5C296.92 268.1 301.22 272.5 306.62 275.7C312.02 278.7 318.32 280.2 325.52 280.2C332.72 280.2 339.02 278.7 344.42 275.7C349.82 272.5 354.02 268.1 357.02 262.5C360.02 256.7 361.52 250 361.52 242.4C361.52 234.8 360.02 228.2 357.02 222.6C354.02 217 349.82 212.7 344.42 209.7C339.02 206.5 332.72 204.9 325.52 204.9C318.32 204.9 312.02 206.5 306.62 209.7C301.22 212.7 296.92 217 293.72 222.6C290.72 228.2 289.22 234.8 289.22 242.4ZM481.004 318H434.804V168H478.004L483.104 193.8L478.304 188.4C481.304 182.4 486.704 176.7 494.504 171.3C502.304 165.9 512.404 163.2 524.804 163.2C538.004 163.2 548.604 166.5 556.604 173.1C564.604 179.7 570.504 188.3 574.304 198.9H567.104C569.504 188.3 575.304 179.7 584.504 173.1C593.704 166.5 604.704 163.2 617.504 163.2C636.904 163.2 651.404 168.4 661.004 178.8C670.604 189 675.404 202.7 675.404 219.9V318H629.204V232.8C629.204 223.4 626.904 216.4 622.304 211.8C617.904 207.2 612.004 204.9 604.604 204.9C600.204 204.9 596.004 205.9 592.004 207.9C588.004 209.7 584.704 213 582.104 217.8C579.504 222.4 578.204 229 578.204 237.6V318H532.004V232.8C532.004 223.4 529.804 216.5 525.404 212.1C521.004 207.5 515.104 205.2 507.704 205.2C503.304 205.2 499.004 206.2 494.804 208.2C490.804 210 487.504 213.3 484.904 218.1C482.304 222.7 481.004 229.2 481.004 237.6V318ZM708.437 318V168H754.637V318H708.437ZM731.237 144.6C723.837 144.6 717.537 142.1 712.337 137.1C707.337 131.9 704.837 125.6 704.837 118.2C704.837 110.8 707.337 104.6 712.337 99.6C717.537 94.6 723.837 92.1 731.237 92.1C738.437 92.1 744.537 94.6 749.537 99.6C754.737 104.6 757.337 110.8 757.337 118.2C757.337 125.6 754.737 131.9 749.537 137.1C744.537 142.1 738.437 144.6 731.237 144.6ZM835.496 318H789.296V168H832.796L835.796 183.6C840.396 177.2 846.696 172.2 854.696 168.6C862.896 165 871.896 163.2 881.696 163.2C899.496 163.2 913.296 168.7 923.096 179.7C933.096 190.5 938.096 205.7 938.096 225.3V318H891.896V236.4C891.896 227 889.496 219.5 884.696 213.9C879.896 208.1 873.496 205.2 865.496 205.2C856.296 205.2 848.996 208 843.596 213.6C838.196 219 835.496 226.4 835.496 235.8V318ZM963.73 240.3C963.73 225.1 966.73 211.7 972.73 200.1C978.93 188.5 987.43 179.4 998.23 172.8C1009.23 166.2 1021.73 162.9 1035.73 162.9C1047.53 162.9 1057.63 165.3 1066.03 170.1C1074.63 174.9 1080.53 181.2 1083.73 189L1079.23 192L1082.83 168H1126.33V308.4C1126.33 326.2 1123.03 341.5 1116.43 354.3C1109.83 367.3 1100.43 377.2 1088.23 384C1076.03 391 1061.33 394.5 1044.13 394.5C1021.13 394.5 1002.43 388.3 988.03 375.9C973.63 363.7 965.33 347 963.13 325.8H1009.93C1010.33 334.2 1013.53 340.7 1019.53 345.3C1025.53 350.1 1033.63 352.5 1043.83 352.5C1055.03 352.5 1063.83 349.4 1070.23 343.2C1076.83 337 1080.13 328.6 1080.13 318V286.2L1085.23 290.1C1082.03 297.9 1075.83 304.2 1066.63 309C1057.43 313.8 1046.83 316.2 1034.83 316.2C1020.83 316.2 1008.43 313 997.63 306.6C987.03 300.2 978.73 291.3 972.73 279.9C966.73 268.5 963.73 255.3 963.73 240.3ZM1010.23 239.1C1010.23 246.3 1011.73 252.7 1014.73 258.3C1017.73 263.7 1021.83 268 1027.03 271.2C1032.23 274.4 1038.23 276 1045.03 276C1052.03 276 1058.13 274.5 1063.33 271.5C1068.73 268.3 1072.83 264 1075.63 258.6C1078.63 253 1080.13 246.5 1080.13 239.1C1080.13 231.7 1078.63 225.4 1075.63 220.2C1072.83 214.8 1068.73 210.6 1063.33 207.6C1058.13 204.6 1051.93 203.1 1044.73 203.1C1037.93 203.1 1031.93 204.6 1026.73 207.6C1021.53 210.6 1017.43 214.8 1014.43 220.2C1011.63 225.6 1010.23 231.9 1010.23 239.1ZM1233.87 160.5C1233.87 147.1 1237.37 135.3 1244.37 125.1C1251.37 114.7 1260.97 106.6 1273.17 100.8C1285.57 94.8 1299.67 91.8 1315.47 91.8C1331.47 91.8 1345.27 94.6 1356.87 100.2C1368.47 105.8 1377.37 113.7 1383.57 123.9C1389.97 134.1 1393.17 146.2 1393.17 160.2H1344.87C1344.87 152.4 1342.17 146.3 1336.77 141.9C1331.37 137.3 1324.07 135 1314.87 135C1305.07 135 1297.17 137.1 1291.17 141.3C1285.37 145.5 1282.47 151.3 1282.47 158.7C1282.47 165.5 1284.27 170.7 1287.87 174.3C1291.47 177.9 1297.17 180.5 1304.97 182.1L1338.27 189C1358.07 193 1372.77 200 1382.37 210C1391.97 219.8 1396.77 233.5 1396.77 251.1C1396.77 265.3 1393.27 277.8 1386.27 288.6C1379.27 299.2 1369.37 307.4 1356.57 313.2C1343.97 319 1329.17 321.9 1312.17 321.9C1295.77 321.9 1281.37 319.1 1268.97 313.5C1256.77 307.9 1247.27 300 1240.47 289.8C1233.87 279.4 1230.57 267.3 1230.57 253.5H1278.87C1278.87 261.5 1281.77 267.7 1287.57 272.1C1293.37 276.5 1301.67 278.7 1312.47 278.7C1323.47 278.7 1332.17 276.7 1338.57 272.7C1344.97 268.5 1348.17 262.9 1348.17 255.9C1348.17 249.7 1346.57 244.9 1343.37 241.5C1340.37 238.1 1335.17 235.7 1327.77 234.3L1293.87 227.4C1274.07 223.4 1259.07 215.8 1248.87 204.6C1238.87 193.4 1233.87 178.7 1233.87 160.5ZM1415.18 242.7C1415.18 226.9 1418.68 213.1 1425.68 201.3C1432.88 189.3 1442.68 180 1455.08 173.4C1467.68 166.8 1481.98 163.5 1497.98 163.5C1513.98 163.5 1528.18 166.8 1540.58 173.4C1552.98 180 1562.68 189.3 1569.68 201.3C1576.88 213.1 1580.48 226.9 1580.48 242.7C1580.48 258.5 1576.88 272.3 1569.68 284.1C1562.68 295.9 1552.98 305.1 1540.58 311.7C1528.18 318.3 1513.98 321.6 1497.98 321.6C1481.98 321.6 1467.68 318.3 1455.08 311.7C1442.68 305.1 1432.88 295.9 1425.68 284.1C1418.68 272.3 1415.18 258.5 1415.18 242.7ZM1461.68 242.4C1461.68 250 1463.18 256.7 1466.18 262.5C1469.38 268.1 1473.68 272.5 1479.08 275.7C1484.48 278.7 1490.78 280.2 1497.98 280.2C1505.18 280.2 1511.48 278.7 1516.88 275.7C1522.28 272.5 1526.48 268.1 1529.48 262.5C1532.48 256.7 1533.98 250 1533.98 242.4C1533.98 234.8 1532.48 228.2 1529.48 222.6C1526.48 217 1522.28 212.7 1516.88 209.7C1511.48 206.5 1505.18 204.9 1497.98 204.9C1490.78 204.9 1484.48 206.5 1479.08 209.7C1473.68 212.7 1469.38 217 1466.18 222.6C1463.18 228.2 1461.68 234.8 1461.68 242.4ZM1599.17 242.7C1599.17 226.9 1602.67 213.1 1609.67 201.3C1616.87 189.3 1626.67 180 1639.07 173.4C1651.67 166.8 1665.97 163.5 1681.97 163.5C1697.97 163.5 1712.17 166.8 1724.57 173.4C1736.97 180 1746.67 189.3 1753.67 201.3C1760.87 213.1 1764.47 226.9 1764.47 242.7C1764.47 258.5 1760.87 272.3 1753.67 284.1C1746.67 295.9 1736.97 305.1 1724.57 311.7C1712.17 318.3 1697.97 321.6 1681.97 321.6C1665.97 321.6 1651.67 318.3 1639.07 311.7C1626.67 305.1 1616.87 295.9 1609.67 284.1C1602.67 272.3 1599.17 258.5 1599.17 242.7ZM1645.67 242.4C1645.67 250 1647.17 256.7 1650.17 262.5C1653.37 268.1 1657.67 272.5 1663.07 275.7C1668.47 278.7 1674.77 280.2 1681.97 280.2C1689.17 280.2 1695.47 278.7 1700.87 275.7C1706.27 272.5 1710.47 268.1 1713.47 262.5C1716.47 256.7 1717.97 250 1717.97 242.4C1717.97 234.8 1716.47 228.2 1713.47 222.6C1710.47 217 1706.27 212.7 1700.87 209.7C1695.47 206.5 1689.17 204.9 1681.97 204.9C1674.77 204.9 1668.47 206.5 1663.07 209.7C1657.67 212.7 1653.37 217 1650.17 222.6C1647.17 228.2 1645.67 234.8 1645.67 242.4ZM1837.45 318H1791.25V168H1834.75L1837.75 183.6C1842.35 177.2 1848.65 172.2 1856.65 168.6C1864.85 165 1873.85 163.2 1883.65 163.2C1901.45 163.2 1915.25 168.7 1925.05 179.7C1935.05 190.5 1940.05 205.7 1940.05 225.3V318H1893.85V236.4C1893.85 227 1891.45 219.5 1886.65 213.9C1881.85 208.1 1875.45 205.2 1867.45 205.2C1858.25 205.2 1850.95 208 1845.55 213.6C1840.15 219 1837.45 226.4 1837.45 235.8V318Z"/>
</mask>
<path d="M119.317 321.6C97.1168 321.6 77.9168 317 61.7168 307.8C45.5168 298.4 33.0168 285.2 24.2168 268.2C15.4168 251 11.0168 230.7 11.0168 207.3C11.0168 184.1 15.6168 163.9 24.8168 146.7C34.0168 129.5 46.9168 116.2 63.5168 106.8C80.1168 97.2 99.4168 92.4 121.417 92.4C140.017 92.4 156.517 95.8 170.917 102.6C185.517 109.2 197.417 118.6 206.617 130.8C215.817 143 221.517 157.4 223.717 174H172.417C169.217 162.8 163.017 154.2 153.817 148.2C144.817 142.2 133.617 139.2 120.217 139.2C108.217 139.2 97.8168 141.9 89.0168 147.3C80.4168 152.7 73.8168 160.5 69.2168 170.7C64.6168 180.7 62.3168 192.8 62.3168 207C62.3168 220.8 64.6168 232.8 69.2168 243C74.0168 253.2 80.7168 261.1 89.3168 266.7C98.1168 272.1 108.417 274.8 120.217 274.8C133.817 274.8 145.317 271.7 154.717 265.5C164.317 259.1 170.617 250.4 173.617 239.4H224.017C221.417 255.8 215.317 270.2 205.717 282.6C196.317 295 184.217 304.6 169.417 311.4C154.617 318.2 137.917 321.6 119.317 321.6ZM242.72 242.7C242.72 226.9 246.22 213.1 253.22 201.3C260.42 189.3 270.22 180 282.62 173.4C295.22 166.8 309.52 163.5 325.52 163.5C341.52 163.5 355.72 166.8 368.12 173.4C380.52 180 390.22 189.3 397.22 201.3C404.42 213.1 408.02 226.9 408.02 242.7C408.02 258.5 404.42 272.3 397.22 284.1C390.22 295.9 380.52 305.1 368.12 311.7C355.72 318.3 341.52 321.6 325.52 321.6C309.52 321.6 295.22 318.3 282.62 311.7C270.22 305.1 260.42 295.9 253.22 284.1C246.22 272.3 242.72 258.5 242.72 242.7ZM289.22 242.4C289.22 250 290.72 256.7 293.72 262.5C296.92 268.1 301.22 272.5 306.62 275.7C312.02 278.7 318.32 280.2 325.52 280.2C332.72 280.2 339.02 278.7 344.42 275.7C349.82 272.5 354.02 268.1 357.02 262.5C360.02 256.7 361.52 250 361.52 242.4C361.52 234.8 360.02 228.2 357.02 222.6C354.02 217 349.82 212.7 344.42 209.7C339.02 206.5 332.72 204.9 325.52 204.9C318.32 204.9 312.02 206.5 306.62 209.7C301.22 212.7 296.92 217 293.72 222.6C290.72 228.2 289.22 234.8 289.22 242.4ZM481.004 318H434.804V168H478.004L483.104 193.8L478.304 188.4C481.304 182.4 486.704 176.7 494.504 171.3C502.304 165.9 512.404 163.2 524.804 163.2C538.004 163.2 548.604 166.5 556.604 173.1C564.604 179.7 570.504 188.3 574.304 198.9H567.104C569.504 188.3 575.304 179.7 584.504 173.1C593.704 166.5 604.704 163.2 617.504 163.2C636.904 163.2 651.404 168.4 661.004 178.8C670.604 189 675.404 202.7 675.404 219.9V318H629.204V232.8C629.204 223.4 626.904 216.4 622.304 211.8C617.904 207.2 612.004 204.9 604.604 204.9C600.204 204.9 596.004 205.9 592.004 207.9C588.004 209.7 584.704 213 582.104 217.8C579.504 222.4 578.204 229 578.204 237.6V318H532.004V232.8C532.004 223.4 529.804 216.5 525.404 212.1C521.004 207.5 515.104 205.2 507.704 205.2C503.304 205.2 499.004 206.2 494.804 208.2C490.804 210 487.504 213.3 484.904 218.1C482.304 222.7 481.004 229.2 481.004 237.6V318ZM708.437 318V168H754.637V318H708.437ZM731.237 144.6C723.837 144.6 717.537 142.1 712.337 137.1C707.337 131.9 704.837 125.6 704.837 118.2C704.837 110.8 707.337 104.6 712.337 99.6C717.537 94.6 723.837 92.1 731.237 92.1C738.437 92.1 744.537 94.6 749.537 99.6C754.737 104.6 757.337 110.8 757.337 118.2C757.337 125.6 754.737 131.9 749.537 137.1C744.537 142.1 738.437 144.6 731.237 144.6ZM835.496 318H789.296V168H832.796L835.796 183.6C840.396 177.2 846.696 172.2 854.696 168.6C862.896 165 871.896 163.2 881.696 163.2C899.496 163.2 913.296 168.7 923.096 179.7C933.096 190.5 938.096 205.7 938.096 225.3V318H891.896V236.4C891.896 227 889.496 219.5 884.696 213.9C879.896 208.1 873.496 205.2 865.496 205.2C856.296 205.2 848.996 208 843.596 213.6C838.196 219 835.496 226.4 835.496 235.8V318ZM963.73 240.3C963.73 225.1 966.73 211.7 972.73 200.1C978.93 188.5 987.43 179.4 998.23 172.8C1009.23 166.2 1021.73 162.9 1035.73 162.9C1047.53 162.9 1057.63 165.3 1066.03 170.1C1074.63 174.9 1080.53 181.2 1083.73 189L1079.23 192L1082.83 168H1126.33V308.4C1126.33 326.2 1123.03 341.5 1116.43 354.3C1109.83 367.3 1100.43 377.2 1088.23 384C1076.03 391 1061.33 394.5 1044.13 394.5C1021.13 394.5 1002.43 388.3 988.03 375.9C973.63 363.7 965.33 347 963.13 325.8H1009.93C1010.33 334.2 1013.53 340.7 1019.53 345.3C1025.53 350.1 1033.63 352.5 1043.83 352.5C1055.03 352.5 1063.83 349.4 1070.23 343.2C1076.83 337 1080.13 328.6 1080.13 318V286.2L1085.23 290.1C1082.03 297.9 1075.83 304.2 1066.63 309C1057.43 313.8 1046.83 316.2 1034.83 316.2C1020.83 316.2 1008.43 313 997.63 306.6C987.03 300.2 978.73 291.3 972.73 279.9C966.73 268.5 963.73 255.3 963.73 240.3ZM1010.23 239.1C1010.23 246.3 1011.73 252.7 1014.73 258.3C1017.73 263.7 1021.83 268 1027.03 271.2C1032.23 274.4 1038.23 276 1045.03 276C1052.03 276 1058.13 274.5 1063.33 271.5C1068.73 268.3 1072.83 264 1075.63 258.6C1078.63 253 1080.13 246.5 1080.13 239.1C1080.13 231.7 1078.63 225.4 1075.63 220.2C1072.83 214.8 1068.73 210.6 1063.33 207.6C1058.13 204.6 1051.93 203.1 1044.73 203.1C1037.93 203.1 1031.93 204.6 1026.73 207.6C1021.53 210.6 1017.43 214.8 1014.43 220.2C1011.63 225.6 1010.23 231.9 1010.23 239.1ZM1233.87 160.5C1233.87 147.1 1237.37 135.3 1244.37 125.1C1251.37 114.7 1260.97 106.6 1273.17 100.8C1285.57 94.8 1299.67 91.8 1315.47 91.8C1331.47 91.8 1345.27 94.6 1356.87 100.2C1368.47 105.8 1377.37 113.7 1383.57 123.9C1389.97 134.1 1393.17 146.2 1393.17 160.2H1344.87C1344.87 152.4 1342.17 146.3 1336.77 141.9C1331.37 137.3 1324.07 135 1314.87 135C1305.07 135 1297.17 137.1 1291.17 141.3C1285.37 145.5 1282.47 151.3 1282.47 158.7C1282.47 165.5 1284.27 170.7 1287.87 174.3C1291.47 177.9 1297.17 180.5 1304.97 182.1L1338.27 189C1358.07 193 1372.77 200 1382.37 210C1391.97 219.8 1396.77 233.5 1396.77 251.1C1396.77 265.3 1393.27 277.8 1386.27 288.6C1379.27 299.2 1369.37 307.4 1356.57 313.2C1343.97 319 1329.17 321.9 1312.17 321.9C1295.77 321.9 1281.37 319.1 1268.97 313.5C1256.77 307.9 1247.27 300 1240.47 289.8C1233.87 279.4 1230.57 267.3 1230.57 253.5H1278.87C1278.87 261.5 1281.77 267.7 1287.57 272.1C1293.37 276.5 1301.67 278.7 1312.47 278.7C1323.47 278.7 1332.17 276.7 1338.57 272.7C1344.97 268.5 1348.17 262.9 1348.17 255.9C1348.17 249.7 1346.57 244.9 1343.37 241.5C1340.37 238.1 1335.17 235.7 1327.77 234.3L1293.87 227.4C1274.07 223.4 1259.07 215.8 1248.87 204.6C1238.87 193.4 1233.87 178.7 1233.87 160.5ZM1415.18 242.7C1415.18 226.9 1418.68 213.1 1425.68 201.3C1432.88 189.3 1442.68 180 1455.08 173.4C1467.68 166.8 1481.98 163.5 1497.98 163.5C1513.98 163.5 1528.18 166.8 1540.58 173.4C1552.98 180 1562.68 189.3 1569.68 201.3C1576.88 213.1 1580.48 226.9 1580.48 242.7C1580.48 258.5 1576.88 272.3 1569.68 284.1C1562.68 295.9 1552.98 305.1 1540.58 311.7C1528.18 318.3 1513.98 321.6 1497.98 321.6C1481.98 321.6 1467.68 318.3 1455.08 311.7C1442.68 305.1 1432.88 295.9 1425.68 284.1C1418.68 272.3 1415.18 258.5 1415.18 242.7ZM1461.68 242.4C1461.68 250 1463.18 256.7 1466.18 262.5C1469.38 268.1 1473.68 272.5 1479.08 275.7C1484.48 278.7 1490.78 280.2 1497.98 280.2C1505.18 280.2 1511.48 278.7 1516.88 275.7C1522.28 272.5 1526.48 268.1 1529.48 262.5C1532.48 256.7 1533.98 250 1533.98 242.4C1533.98 234.8 1532.48 228.2 1529.48 222.6C1526.48 217 1522.28 212.7 1516.88 209.7C1511.48 206.5 1505.18 204.9 1497.98 204.9C1490.78 204.9 1484.48 206.5 1479.08 209.7C1473.68 212.7 1469.38 217 1466.18 222.6C1463.18 228.2 1461.68 234.8 1461.68 242.4ZM1599.17 242.7C1599.17 226.9 1602.67 213.1 1609.67 201.3C1616.87 189.3 1626.67 180 1639.07 173.4C1651.67 166.8 1665.97 163.5 1681.97 163.5C1697.97 163.5 1712.17 166.8 1724.57 173.4C1736.97 180 1746.67 189.3 1753.67 201.3C1760.87 213.1 1764.47 226.9 1764.47 242.7C1764.47 258.5 1760.87 272.3 1753.67 284.1C1746.67 295.9 1736.97 305.1 1724.57 311.7C1712.17 318.3 1697.97 321.6 1681.97 321.6C1665.97 321.6 1651.67 318.3 1639.07 311.7C1626.67 305.1 1616.87 295.9 1609.67 284.1C1602.67 272.3 1599.17 258.5 1599.17 242.7ZM1645.67 242.4C1645.67 250 1647.17 256.7 1650.17 262.5C1653.37 268.1 1657.67 272.5 1663.07 275.7C1668.47 278.7 1674.77 280.2 1681.97 280.2C1689.17 280.2 1695.47 278.7 1700.87 275.7C1706.27 272.5 1710.47 268.1 1713.47 262.5C1716.47 256.7 1717.97 250 1717.97 242.4C1717.97 234.8 1716.47 228.2 1713.47 222.6C1710.47 217 1706.27 212.7 1700.87 209.7C1695.47 206.5 1689.17 204.9 1681.97 204.9C1674.77 204.9 1668.47 206.5 1663.07 209.7C1657.67 212.7 1653.37 217 1650.17 222.6C1647.17 228.2 1645.67 234.8 1645.67 242.4ZM1837.45 318H1791.25V168H1834.75L1837.75 183.6C1842.35 177.2 1848.65 172.2 1856.65 168.6C1864.85 165 1873.85 163.2 1883.65 163.2C1901.45 163.2 1915.25 168.7 1925.05 179.7C1935.05 190.5 1940.05 205.7 1940.05 225.3V318H1893.85V236.4C1893.85 227 1891.45 219.5 1886.65 213.9C1881.85 208.1 1875.45 205.2 1867.45 205.2C1858.25 205.2 1850.95 208 1845.55 213.6C1840.15 219 1837.45 226.4 1837.45 235.8V318Z" fill="url(#paint0_linear_21_21)" fill-opacity="0.1"/>
<path d="M61.7168 307.8L60.713 309.53L60.7211 309.535L60.7292 309.539L61.7168 307.8ZM24.2168 268.2L22.4363 269.111L22.4407 269.119L24.2168 268.2ZM24.8168 146.7L23.0532 145.757L23.0532 145.757L24.8168 146.7ZM63.5168 106.8L64.5023 108.54L64.5102 108.536L64.518 108.531L63.5168 106.8ZM170.917 102.6L170.063 104.408L170.078 104.416L170.093 104.422L170.917 102.6ZM206.617 130.8L205.02 132.004L205.02 132.004L206.617 130.8ZM223.717 174V176H225.999L225.699 173.737L223.717 174ZM172.417 174L170.494 174.549L170.908 176H172.417V174ZM153.817 148.2L152.707 149.864L152.716 149.87L152.724 149.875L153.817 148.2ZM89.0168 147.3L87.9708 145.595L87.962 145.601L87.9533 145.606L89.0168 147.3ZM69.2168 170.7L71.0338 171.536L71.0369 171.529L71.04 171.522L69.2168 170.7ZM69.2168 243L67.3936 243.822L67.4003 243.837L67.4072 243.852L69.2168 243ZM89.3168 266.7L88.2255 268.376L88.2479 268.391L88.2708 268.405L89.3168 266.7ZM154.717 265.5L155.818 267.17L155.826 267.164L154.717 265.5ZM173.617 239.4V237.4H172.089L171.687 238.874L173.617 239.4ZM224.017 239.4L225.992 239.713L226.359 237.4H224.017V239.4ZM205.717 282.6L204.135 281.376L204.129 281.384L204.123 281.392L205.717 282.6ZM169.417 311.4L168.582 309.583L168.582 309.583L169.417 311.4ZM119.317 319.6C97.3966 319.6 78.5504 315.06 62.7045 306.061L60.7292 309.539C77.2832 318.94 96.837 323.6 119.317 323.6V319.6ZM62.7206 306.07C46.8575 296.866 34.622 283.95 25.9929 267.281L22.4407 269.119C31.4116 286.45 44.1761 299.934 60.713 309.53L62.7206 306.07ZM25.9973 267.289C17.3689 250.425 13.0168 230.449 13.0168 207.3H9.0168C9.0168 230.951 13.4647 251.575 22.4363 269.111L25.9973 267.289ZM13.0168 207.3C13.0168 184.367 17.5625 164.503 26.5804 147.643L23.0532 145.757C13.6711 163.297 9.0168 183.833 9.0168 207.3H13.0168ZM26.5804 147.643C35.606 130.769 48.2396 117.749 64.5023 108.54L62.5313 105.06C45.594 114.651 32.4276 128.231 23.0532 145.757L26.5804 147.643ZM64.518 108.531C80.7712 99.1319 99.7158 94.4 121.417 94.4V90.4C99.1178 90.4 79.4624 95.2681 62.5156 105.069L64.518 108.531ZM121.417 94.4C139.771 94.4 155.971 97.7541 170.063 104.408L171.771 100.791C157.063 93.8459 140.263 90.4 121.417 90.4V94.4ZM170.093 104.422C184.403 110.891 196.032 120.085 205.02 132.004L208.214 129.596C198.802 117.115 186.631 107.509 171.741 100.778L170.093 104.422ZM205.02 132.004C213.993 143.903 219.575 157.971 221.734 174.263L225.699 173.737C223.459 156.829 217.641 142.097 208.214 129.596L205.02 132.004ZM223.717 172H172.417V176H223.717V172ZM174.34 173.451C171.016 161.818 164.538 152.805 154.909 146.525L152.724 149.875C161.495 155.595 167.417 163.782 170.494 174.549L174.34 173.451ZM154.926 146.536C145.527 140.27 133.917 137.2 120.217 137.2V141.2C133.317 141.2 144.107 144.13 152.707 149.864L154.926 146.536ZM120.217 137.2C107.908 137.2 97.1336 139.973 87.9708 145.595L90.0628 149.005C98.5 143.827 108.525 141.2 120.217 141.2V137.2ZM87.9533 145.606C78.9861 151.237 72.1384 159.357 67.3936 169.878L71.04 171.522C75.4952 161.643 81.8475 154.163 90.0803 148.994L87.9533 145.606ZM67.3998 169.864C62.6496 180.191 60.3168 192.592 60.3168 207H64.3168C64.3168 193.008 66.584 181.209 71.0338 171.536L67.3998 169.864ZM60.3168 207C60.3168 221.019 62.6532 233.311 67.3936 243.822L71.04 242.178C66.5804 232.289 64.3168 220.581 64.3168 207H60.3168ZM67.4072 243.852C72.3493 254.354 79.2838 262.554 88.2255 268.376L90.4081 265.024C82.1498 259.646 75.6843 252.046 71.0264 242.148L67.4072 243.852ZM88.2708 268.405C97.4285 274.024 108.101 276.8 120.217 276.8V272.8C108.732 272.8 98.8051 270.176 90.3628 264.995L88.2708 268.405ZM120.217 276.8C134.126 276.8 146.029 273.626 155.818 267.17L153.616 263.83C144.605 269.774 133.508 272.8 120.217 272.8V276.8ZM155.826 267.164C165.823 260.5 172.418 251.398 175.546 239.926L171.687 238.874C168.816 249.402 162.811 257.7 153.607 263.836L155.826 267.164ZM173.617 241.4H224.017V237.4H173.617V241.4ZM222.041 239.087C219.491 255.175 213.517 269.257 204.135 281.376L207.298 283.824C217.116 271.143 223.343 256.425 225.992 239.713L222.041 239.087ZM204.123 281.392C194.931 293.517 183.097 302.913 168.582 309.583L170.252 313.217C185.337 306.287 197.702 296.483 207.311 283.808L204.123 281.392ZM168.582 309.583C154.078 316.246 137.669 319.6 119.317 319.6V323.6C138.164 323.6 155.155 320.154 170.252 313.217L168.582 309.583ZM253.22 201.3L251.505 200.271L251.5 200.28L253.22 201.3ZM282.62 173.4L281.692 171.628L281.68 171.634L282.62 173.4ZM368.12 173.4L367.18 175.165L367.18 175.165L368.12 173.4ZM397.22 201.3L395.492 202.308L395.502 202.325L395.513 202.342L397.22 201.3ZM397.22 284.1L395.513 283.058L395.506 283.069L395.5 283.08L397.22 284.1ZM368.12 311.7L367.18 309.935L368.12 311.7ZM282.62 311.7L281.68 313.466L281.692 313.472L282.62 311.7ZM253.22 284.1L251.5 285.12L251.506 285.131L251.513 285.142L253.22 284.1ZM293.72 262.5L291.943 263.419L291.963 263.456L291.983 263.492L293.72 262.5ZM306.62 275.7L305.6 277.421L305.624 277.435L305.649 277.448L306.62 275.7ZM344.42 275.7L345.391 277.448L345.416 277.435L345.44 277.421L344.42 275.7ZM357.02 262.5L358.783 263.444L358.79 263.432L358.796 263.419L357.02 262.5ZM357.02 222.6L358.783 221.656L358.783 221.656L357.02 222.6ZM344.42 209.7L343.4 211.421L343.424 211.435L343.449 211.448L344.42 209.7ZM306.62 209.7L307.591 211.448L307.616 211.435L307.64 211.421L306.62 209.7ZM293.72 222.6L291.983 221.608L291.97 221.631L291.957 221.656L293.72 222.6ZM244.72 242.7C244.72 227.204 248.15 213.767 254.94 202.32L251.5 200.28C244.29 212.433 240.72 226.596 240.72 242.7H244.72ZM254.935 202.329C261.947 190.642 271.479 181.596 283.56 175.165L281.68 171.634C268.961 178.404 258.892 187.958 251.505 200.271L254.935 202.329ZM283.548 175.172C295.827 168.74 309.802 165.5 325.52 165.5V161.5C309.238 161.5 294.612 164.86 281.692 171.628L283.548 175.172ZM325.52 165.5C341.238 165.5 355.108 168.74 367.18 175.165L369.06 171.634C356.332 164.86 341.802 161.5 325.52 161.5V165.5ZM367.18 175.165C379.256 181.593 388.682 190.632 395.492 202.308L398.947 200.292C391.758 187.968 381.784 178.407 369.06 171.634L367.18 175.165ZM395.513 202.342C402.495 213.785 406.02 227.214 406.02 242.7H410.02C410.02 226.586 406.345 212.415 398.927 200.258L395.513 202.342ZM406.02 242.7C406.02 258.186 402.495 271.615 395.513 283.058L398.927 285.142C406.345 272.985 410.02 258.814 410.02 242.7H406.02ZM395.5 283.08C388.691 294.557 379.265 303.502 367.18 309.935L369.06 313.465C381.775 306.698 391.748 297.243 398.94 285.12L395.5 283.08ZM367.18 309.935C355.108 316.36 341.238 319.6 325.52 319.6V323.6C341.802 323.6 356.332 320.24 369.06 313.465L367.18 309.935ZM325.52 319.6C309.802 319.6 295.827 316.36 283.548 309.928L281.692 313.472C294.612 320.24 309.238 323.6 325.52 323.6V319.6ZM283.56 309.935C271.47 303.5 261.938 294.548 254.927 283.058L251.513 285.142C258.902 297.252 268.97 306.7 281.68 313.465L283.56 309.935ZM254.94 283.08C248.15 271.633 244.72 258.196 244.72 242.7H240.72C240.72 258.804 244.29 272.967 251.5 285.12L254.94 283.08ZM287.22 242.4C287.22 250.267 288.774 257.292 291.943 263.419L295.496 261.581C292.666 256.108 291.22 249.733 291.22 242.4H287.22ZM291.983 263.492C295.35 269.384 299.894 274.039 305.6 277.421L307.64 273.979C302.546 270.961 298.489 266.816 295.456 261.508L291.983 263.492ZM305.649 277.448C311.392 280.639 318.037 282.2 325.52 282.2V278.2C318.603 278.2 312.648 276.761 307.591 273.952L305.649 277.448ZM325.52 282.2C333.003 282.2 339.648 280.639 345.391 277.448L343.449 273.952C338.392 276.761 332.437 278.2 325.52 278.2V282.2ZM345.44 277.421C351.157 274.032 355.613 269.362 358.783 263.444L355.257 261.556C352.427 266.838 348.482 270.968 343.4 273.979L345.44 277.421ZM358.796 263.419C361.966 257.292 363.52 250.267 363.52 242.4H359.52C359.52 249.733 358.074 256.108 355.243 261.581L358.796 263.419ZM363.52 242.4C363.52 234.535 361.966 227.598 358.783 221.656L355.257 223.544C358.074 228.802 359.52 235.065 359.52 242.4H363.52ZM358.783 221.656C355.607 215.727 351.137 211.144 345.391 207.952L343.449 211.448C348.503 214.256 352.433 218.273 355.257 223.544L358.783 221.656ZM345.44 207.979C339.688 204.571 333.025 202.9 325.52 202.9V206.9C332.415 206.9 338.352 208.429 343.4 211.421L345.44 207.979ZM325.52 202.9C318.015 202.9 311.352 204.571 305.6 207.979L307.64 211.421C312.688 208.429 318.625 206.9 325.52 206.9V202.9ZM305.649 207.952C299.915 211.137 295.356 215.705 291.983 221.608L295.456 223.592C298.484 218.295 302.525 214.263 307.591 211.448L305.649 207.952ZM291.957 221.656C288.774 227.598 287.22 234.535 287.22 242.4H291.22C291.22 235.065 292.666 228.802 295.483 223.544L291.957 221.656ZM481.004 318V320H483.004V318H481.004ZM434.804 318H432.804V320H434.804V318ZM434.804 168V166H432.804V168H434.804ZM478.004 168L479.966 167.612L479.648 166H478.004V168ZM483.104 193.8L481.609 195.129L486.491 200.621L485.066 193.412L483.104 193.8ZM478.304 188.4L476.515 187.506L475.91 188.717L476.809 189.729L478.304 188.4ZM494.504 171.3L493.366 169.656L493.366 169.656L494.504 171.3ZM556.604 173.1L555.332 174.643L555.332 174.643L556.604 173.1ZM574.304 198.9V200.9H577.146L576.187 198.225L574.304 198.9ZM567.104 198.9L565.154 198.458L564.601 200.9H567.104V198.9ZM584.504 173.1L585.67 174.725L585.67 174.725L584.504 173.1ZM661.004 178.8L659.535 180.157L659.541 180.164L659.548 180.171L661.004 178.8ZM675.404 318V320H677.404V318H675.404ZM629.204 318H627.204V320H629.204V318ZM622.304 211.8L620.859 213.182L620.874 213.199L620.89 213.214L622.304 211.8ZM592.004 207.9L592.825 209.724L592.862 209.707L592.899 209.689L592.004 207.9ZM582.104 217.8L583.845 218.784L583.854 218.768L583.863 218.753L582.104 217.8ZM578.204 318V320H580.204V318H578.204ZM532.004 318H530.004V320H532.004V318ZM525.404 212.1L523.959 213.482L523.974 213.498L523.99 213.514L525.404 212.1ZM494.804 208.2L495.625 210.024L495.645 210.015L495.664 210.006L494.804 208.2ZM484.904 218.1L486.645 219.084L486.654 219.068L486.663 219.053L484.904 218.1ZM481.004 316H434.804V320H481.004V316ZM436.804 318V168H432.804V318H436.804ZM434.804 170H478.004V166H434.804V170ZM476.042 168.388L481.142 194.188L485.066 193.412L479.966 167.612L476.042 168.388ZM484.599 192.471L479.799 187.071L476.809 189.729L481.609 195.129L484.599 192.471ZM480.093 189.294C482.893 183.694 488.011 178.228 495.643 172.944L493.366 169.656C485.397 175.172 479.715 181.106 476.515 187.506L480.093 189.294ZM495.643 172.944C503.019 167.838 512.687 165.2 524.804 165.2V161.2C512.121 161.2 501.589 163.962 493.366 169.656L495.643 172.944ZM524.804 165.2C537.669 165.2 547.778 168.411 555.332 174.643L557.877 171.557C549.43 164.589 538.339 161.2 524.804 161.2V165.2ZM555.332 174.643C563.03 180.994 568.732 189.284 572.422 199.575L576.187 198.225C572.276 187.316 566.178 178.406 557.877 171.557L555.332 174.643ZM574.304 196.9H567.104V200.9H574.304V196.9ZM569.055 199.342C571.342 189.24 576.849 181.053 585.67 174.725L583.338 171.475C573.759 178.347 567.667 187.36 565.154 198.458L569.055 199.342ZM585.67 174.725C594.487 168.4 605.066 165.2 617.504 165.2V161.2C604.343 161.2 592.922 164.6 583.338 171.475L585.67 174.725ZM617.504 165.2C636.56 165.2 650.438 170.301 659.535 180.157L662.474 177.443C652.371 166.499 637.248 161.2 617.504 161.2V165.2ZM659.548 180.171C668.723 189.919 673.404 203.087 673.404 219.9H677.404C677.404 202.313 672.486 188.081 662.461 177.429L659.548 180.171ZM673.404 219.9V318H677.404V219.9H673.404ZM675.404 316H629.204V320H675.404V316ZM631.204 318V232.8H627.204V318H631.204ZM631.204 232.8C631.204 223.106 628.833 215.5 623.719 210.386L620.89 213.214C624.976 217.3 627.204 223.694 627.204 232.8H631.204ZM623.75 210.418C618.91 205.358 612.454 202.9 604.604 202.9V206.9C611.555 206.9 616.898 209.042 620.859 213.182L623.75 210.418ZM604.604 202.9C599.889 202.9 595.383 203.975 591.11 206.111L592.899 209.689C596.626 207.825 600.52 206.9 604.604 206.9V202.9ZM591.184 206.076C586.695 208.096 583.102 211.758 580.346 216.847L583.863 218.753C586.306 214.242 589.314 211.304 592.825 209.724L591.184 206.076ZM580.363 216.816C577.519 221.849 576.204 228.849 576.204 237.6H580.204C580.204 229.151 581.49 222.951 583.845 218.784L580.363 216.816ZM576.204 237.6V318H580.204V237.6H576.204ZM578.204 316H532.004V320H578.204V316ZM534.004 318V232.8H530.004V318H534.004ZM534.004 232.8C534.004 223.136 531.748 215.615 526.819 210.686L523.99 213.514C527.861 217.385 530.004 223.664 530.004 232.8H534.004ZM526.85 210.718C522.01 205.658 515.554 203.2 507.704 203.2V207.2C514.655 207.2 519.998 209.342 523.959 213.482L526.85 210.718ZM507.704 203.2C502.99 203.2 498.397 204.274 493.944 206.394L495.664 210.006C499.611 208.126 503.619 207.2 507.704 207.2V203.2ZM493.984 206.376C489.495 208.396 485.902 212.058 483.146 217.147L486.663 219.053C489.106 214.542 492.114 211.604 495.625 210.024L493.984 206.376ZM483.163 217.116C480.322 222.143 479.004 229.039 479.004 237.6H483.004C483.004 229.361 484.287 223.257 486.645 219.084L483.163 217.116ZM479.004 237.6V318H483.004V237.6H479.004ZM708.437 318H706.437V320H708.437V318ZM708.437 168V166H706.437V168H708.437ZM754.637 168H756.637V166H754.637V168ZM754.637 318V320H756.637V318H754.637ZM712.337 137.1L710.895 138.486L710.923 138.514L710.951 138.542L712.337 137.1ZM712.337 99.6L710.951 98.1583L710.937 98.1719L710.923 98.1858L712.337 99.6ZM749.537 99.6L748.123 101.014L748.137 101.028L748.151 101.042L749.537 99.6ZM749.537 137.1L748.123 135.686L748.123 135.686L749.537 137.1ZM710.437 318V168H706.437V318H710.437ZM708.437 170H754.637V166H708.437V170ZM752.637 168V318H756.637V168H752.637ZM754.637 316H708.437V320H754.637V316ZM731.237 142.6C724.339 142.6 718.54 140.29 713.723 135.658L710.951 138.542C716.534 143.91 723.335 146.6 731.237 146.6V142.6ZM713.779 135.714C709.147 130.897 706.837 125.098 706.837 118.2H702.837C702.837 126.102 705.527 132.903 710.895 138.486L713.779 135.714ZM706.837 118.2C706.837 111.303 709.145 105.62 713.751 101.014L710.923 98.1858C705.529 103.58 702.837 110.297 702.837 118.2H706.837ZM713.723 101.042C718.54 96.4101 724.339 94.1 731.237 94.1V90.1C723.335 90.1 716.534 92.7899 710.951 98.1583L713.723 101.042ZM731.237 94.1C737.918 94.1 743.506 96.3969 748.123 101.014L750.951 98.1858C745.569 92.8031 738.957 90.1 731.237 90.1V94.1ZM748.151 101.042C752.947 105.654 755.337 111.328 755.337 118.2H759.337C759.337 110.272 756.527 103.546 750.923 98.1583L748.151 101.042ZM755.337 118.2C755.337 125.073 752.945 130.863 748.123 135.686L750.951 138.514C756.529 132.936 759.337 126.127 759.337 118.2H755.337ZM748.123 135.686C743.506 140.303 737.918 142.6 731.237 142.6V146.6C738.957 146.6 745.569 143.897 750.951 138.514L748.123 135.686ZM835.496 318V320H837.496V318H835.496ZM789.296 318H787.296V320H789.296V318ZM789.296 168V166H787.296V168H789.296ZM832.796 168L834.76 167.622L834.449 166H832.796V168ZM835.796 183.6L833.832 183.978L834.71 188.539L837.421 184.767L835.796 183.6ZM854.696 168.6L853.893 166.769L853.884 166.772L853.876 166.776L854.696 168.6ZM923.096 179.7L921.603 181.03L921.616 181.045L921.629 181.059L923.096 179.7ZM938.096 318V320H940.096V318H938.096ZM891.896 318H889.896V320H891.896V318ZM884.696 213.9L883.156 215.175L883.167 215.188L883.178 215.202L884.696 213.9ZM843.596 213.6L845.011 215.014L845.024 215.001L845.036 214.988L843.596 213.6ZM835.496 316H789.296V320H835.496V316ZM791.296 318V168H787.296V318H791.296ZM789.296 170H832.796V166H789.296V170ZM830.832 168.378L833.832 183.978L837.761 183.222L834.76 167.622L830.832 168.378ZM837.421 184.767C841.793 178.684 847.801 173.896 855.517 170.424L853.876 166.776C845.592 170.504 839 175.716 834.172 182.433L837.421 184.767ZM855.5 170.431C863.424 166.953 872.147 165.2 881.696 165.2V161.2C871.646 161.2 862.369 163.047 853.893 166.769L855.5 170.431ZM881.696 165.2C899.055 165.2 912.261 170.544 921.603 181.03L924.59 178.37C914.332 166.856 899.938 161.2 881.696 161.2V165.2ZM921.629 181.059C931.186 191.38 936.096 206.033 936.096 225.3H940.096C940.096 205.367 935.007 189.62 924.564 178.341L921.629 181.059ZM936.096 225.3V318H940.096V225.3H936.096ZM938.096 316H891.896V320H938.096V316ZM893.896 318V236.4H889.896V318H893.896ZM893.896 236.4C893.896 226.657 891.403 218.651 886.215 212.598L883.178 215.202C887.59 220.349 889.896 227.343 889.896 236.4H893.896ZM886.237 212.625C881.031 206.334 874.05 203.2 865.496 203.2V207.2C872.943 207.2 878.762 209.866 883.156 215.175L886.237 212.625ZM865.496 203.2C855.861 203.2 848.002 206.15 842.157 212.212L845.036 214.988C849.991 209.85 856.732 207.2 865.496 207.2V203.2ZM842.182 212.186C836.324 218.044 833.496 226 833.496 235.8H837.496C837.496 226.8 840.069 219.956 845.011 215.014L842.182 212.186ZM833.496 235.8V318H837.496V235.8H833.496ZM972.73 200.1L970.966 199.157L970.96 199.169L970.954 199.181L972.73 200.1ZM998.23 172.8L997.201 171.085L997.194 171.089L997.187 171.093L998.23 172.8ZM1066.03 170.1L1065.04 171.836L1065.05 171.841L1065.06 171.846L1066.03 170.1ZM1083.73 189L1084.84 190.664L1086.2 189.756L1085.58 188.241L1083.73 189ZM1079.23 192L1077.25 191.703L1076.58 196.169L1080.34 193.664L1079.23 192ZM1082.83 168V166H1081.11L1080.85 167.703L1082.83 168ZM1126.33 168H1128.33V166H1126.33V168ZM1116.43 354.3L1114.65 353.383L1114.65 353.395L1116.43 354.3ZM1088.23 384L1087.26 382.253L1087.25 382.259L1087.23 382.265L1088.23 384ZM988.03 375.9L989.335 374.384L989.329 374.379L989.323 374.374L988.03 375.9ZM963.13 325.8V323.8H960.912L961.141 326.006L963.13 325.8ZM1009.93 325.8L1011.93 325.705L1011.84 323.8H1009.93V325.8ZM1019.53 345.3L1020.78 343.738L1020.76 343.725L1020.75 343.713L1019.53 345.3ZM1070.23 343.2L1068.86 341.742L1068.85 341.753L1068.84 341.764L1070.23 343.2ZM1080.13 286.2L1081.34 284.611L1078.13 282.153V286.2H1080.13ZM1085.23 290.1L1087.08 290.859L1087.66 289.442L1086.44 288.511L1085.23 290.1ZM1066.63 309L1065.7 307.227L1065.7 307.227L1066.63 309ZM997.63 306.6L996.596 308.312L996.603 308.316L996.61 308.321L997.63 306.6ZM972.73 279.9L970.96 280.831L970.96 280.831L972.73 279.9ZM1014.73 258.3L1012.97 259.244L1012.97 259.258L1012.98 259.271L1014.73 258.3ZM1027.03 271.2L1028.08 269.497L1028.08 269.497L1027.03 271.2ZM1063.33 271.5L1064.33 273.232L1064.34 273.227L1064.35 273.221L1063.33 271.5ZM1075.63 258.6L1073.87 257.656L1073.86 257.667L1073.85 257.679L1075.63 258.6ZM1075.63 220.2L1073.85 221.121L1073.88 221.161L1073.9 221.199L1075.63 220.2ZM1063.33 207.6L1062.33 209.332L1062.34 209.34L1062.36 209.348L1063.33 207.6ZM1026.73 207.6L1025.73 205.868L1025.73 205.868L1026.73 207.6ZM1014.43 220.2L1012.68 219.229L1012.67 219.254L1012.65 219.279L1014.43 220.2ZM965.73 240.3C965.73 225.367 968.676 212.292 974.507 201.019L970.954 199.181C964.784 211.108 961.73 224.833 961.73 240.3H965.73ZM974.494 201.043C980.533 189.744 988.789 180.913 999.273 174.507L997.187 171.093C986.071 177.887 977.327 187.256 970.966 199.157L974.494 201.043ZM999.259 174.515C1009.92 168.118 1022.06 164.9 1035.73 164.9V160.9C1021.4 160.9 1008.54 164.282 997.201 171.085L999.259 174.515ZM1035.73 164.9C1047.26 164.9 1057 167.243 1065.04 171.836L1067.02 168.364C1058.26 163.357 1047.8 160.9 1035.73 160.9V164.9ZM1065.06 171.846C1073.33 176.465 1078.88 182.446 1081.88 189.759L1085.58 188.241C1082.18 179.954 1075.93 173.335 1067 168.354L1065.06 171.846ZM1082.62 187.336L1078.12 190.336L1080.34 193.664L1084.84 190.664L1082.62 187.336ZM1081.21 192.297L1084.81 168.297L1080.85 167.703L1077.25 191.703L1081.21 192.297ZM1082.83 170H1126.33V166H1082.83V170ZM1124.33 168V308.4H1128.33V168H1124.33ZM1124.33 308.4C1124.33 325.955 1121.08 340.926 1114.65 353.383L1118.21 355.217C1124.98 342.074 1128.33 326.445 1128.33 308.4H1124.33ZM1114.65 353.395C1108.22 366.056 1099.09 375.656 1087.26 382.253L1089.2 385.747C1101.77 378.744 1111.44 368.544 1118.21 355.205L1114.65 353.395ZM1087.23 382.265C1075.4 389.057 1061.06 392.5 1044.13 392.5V396.5C1061.6 396.5 1076.66 392.943 1089.23 385.735L1087.23 382.265ZM1044.13 392.5C1021.5 392.5 1003.3 386.41 989.335 374.384L986.725 377.416C1001.56 390.191 1020.76 396.5 1044.13 396.5V392.5ZM989.323 374.374C975.368 362.552 967.274 346.352 965.119 325.594L961.141 326.006C963.387 347.648 971.892 364.848 986.737 377.426L989.323 374.374ZM963.13 327.8H1009.93V323.8H963.13V327.8ZM1007.93 325.895C1008.36 334.809 1011.79 341.886 1018.31 346.887L1020.75 343.713C1015.27 339.514 1012.3 333.591 1011.93 325.705L1007.93 325.895ZM1018.28 346.862C1024.74 352.026 1033.33 354.5 1043.83 354.5V350.5C1033.94 350.5 1026.32 348.174 1020.78 343.738L1018.28 346.862ZM1043.83 354.5C1055.41 354.5 1064.76 351.285 1071.62 344.636L1068.84 341.764C1062.9 347.515 1054.65 350.5 1043.83 350.5V354.5ZM1071.6 344.658C1078.67 338.015 1082.13 329.05 1082.13 318H1078.13C1078.13 328.15 1074.99 335.985 1068.86 341.742L1071.6 344.658ZM1082.13 318V286.2H1078.13V318H1082.13ZM1078.92 287.789L1084.02 291.689L1086.44 288.511L1081.34 284.611L1078.92 287.789ZM1083.38 289.341C1080.4 296.61 1074.59 302.593 1065.7 307.227L1067.56 310.773C1077.07 305.807 1083.66 299.19 1087.08 290.859L1083.38 289.341ZM1065.7 307.227C1056.83 311.856 1046.56 314.2 1034.83 314.2V318.2C1047.1 318.2 1058.03 315.744 1067.56 310.773L1065.7 307.227ZM1034.83 314.2C1021.15 314.2 1009.11 311.076 998.65 304.879L996.61 308.321C1007.75 314.924 1020.51 318.2 1034.83 318.2V314.2ZM998.664 304.888C988.389 298.684 980.337 290.06 974.5 278.969L970.96 280.831C977.123 292.54 985.672 301.716 996.596 308.312L998.664 304.888ZM974.5 278.969C968.674 267.9 965.73 255.029 965.73 240.3H961.73C961.73 255.571 964.786 269.1 970.96 280.831L974.5 278.969ZM1008.23 239.1C1008.23 246.585 1009.79 253.317 1012.97 259.244L1016.49 257.356C1013.67 252.083 1012.23 246.015 1012.23 239.1H1008.23ZM1012.98 259.271C1016.15 264.968 1020.49 269.521 1025.98 272.903L1028.08 269.497C1023.17 266.479 1019.31 262.432 1016.48 257.329L1012.98 259.271ZM1025.98 272.903C1031.53 276.319 1037.9 278 1045.03 278V274C1038.56 274 1032.93 272.481 1028.08 269.497L1025.98 272.903ZM1045.03 278C1052.32 278 1058.78 276.435 1064.33 273.232L1062.33 269.768C1057.48 272.565 1051.74 274 1045.03 274V278ZM1064.35 273.221C1070.06 269.836 1074.43 265.264 1077.41 259.521L1073.85 257.679C1071.23 262.736 1067.4 266.764 1062.31 269.779L1064.35 273.221ZM1077.39 259.544C1080.57 253.609 1082.13 246.775 1082.13 239.1H1078.13C1078.13 246.225 1076.69 252.391 1073.87 257.656L1077.39 259.544ZM1082.13 239.1C1082.13 231.43 1080.57 224.768 1077.36 219.201L1073.9 221.199C1076.69 226.032 1078.13 231.97 1078.13 239.1H1082.13ZM1077.41 219.279C1074.42 213.525 1070.04 209.039 1064.3 205.852L1062.36 209.348C1067.42 212.161 1071.24 216.075 1073.85 221.121L1077.41 219.279ZM1064.33 205.868C1058.77 202.66 1052.21 201.1 1044.73 201.1V205.1C1051.65 205.1 1057.49 206.54 1062.33 209.332L1064.33 205.868ZM1044.73 201.1C1037.63 201.1 1031.27 202.67 1025.73 205.868L1027.73 209.332C1032.59 206.53 1038.23 205.1 1044.73 205.1V201.1ZM1025.73 205.868C1020.21 209.054 1015.85 213.521 1012.68 219.229L1016.18 221.171C1019.01 216.079 1022.85 212.146 1027.73 209.332L1025.73 205.868ZM1012.65 219.279C1009.68 225.012 1008.23 231.638 1008.23 239.1H1012.23C1012.23 232.162 1013.58 226.188 1016.21 221.121L1012.65 219.279ZM1244.37 125.1L1246.02 126.232L1246.02 126.224L1246.03 126.217L1244.37 125.1ZM1273.17 100.8L1274.03 102.606L1274.04 102.6L1273.17 100.8ZM1383.57 123.9L1381.86 124.939L1381.87 124.951L1381.87 124.963L1383.57 123.9ZM1393.17 160.2V162.2H1395.17V160.2H1393.17ZM1344.87 160.2H1342.87V162.2H1344.87V160.2ZM1336.77 141.9L1335.47 143.422L1335.49 143.437L1335.51 143.45L1336.77 141.9ZM1291.17 141.3L1290.02 139.662L1290.01 139.671L1290 139.68L1291.17 141.3ZM1287.87 174.3L1289.28 172.886L1289.28 172.886L1287.87 174.3ZM1304.97 182.1L1305.37 180.142L1305.37 180.141L1304.97 182.1ZM1338.27 189L1337.86 190.958L1337.87 190.96L1338.27 189ZM1382.37 210L1380.93 211.385L1380.93 211.392L1380.94 211.4L1382.37 210ZM1386.27 288.6L1387.94 289.702L1387.94 289.695L1387.95 289.688L1386.27 288.6ZM1356.57 313.2L1355.74 311.378L1355.73 311.383L1356.57 313.2ZM1268.97 313.5L1268.13 315.318L1268.15 315.323L1268.97 313.5ZM1240.47 289.8L1238.78 290.872L1238.79 290.891L1238.8 290.909L1240.47 289.8ZM1230.57 253.5V251.5H1228.57V253.5H1230.57ZM1278.87 253.5H1280.87V251.5H1278.87V253.5ZM1287.57 272.1L1286.36 273.693L1286.36 273.693L1287.57 272.1ZM1338.57 272.7L1339.63 274.396L1339.65 274.384L1339.67 274.372L1338.57 272.7ZM1343.37 241.5L1341.87 242.823L1341.89 242.847L1341.91 242.871L1343.37 241.5ZM1327.77 234.3L1327.37 236.26L1327.38 236.263L1327.4 236.265L1327.77 234.3ZM1293.87 227.4L1294.27 225.44L1294.26 225.44L1293.87 227.4ZM1248.87 204.6L1247.38 205.932L1247.38 205.939L1247.39 205.947L1248.87 204.6ZM1235.87 160.5C1235.87 147.469 1239.27 136.071 1246.02 126.232L1242.72 123.968C1235.47 134.529 1231.87 146.731 1231.87 160.5H1235.87ZM1246.03 126.217C1252.81 116.137 1262.12 108.265 1274.03 102.606L1272.31 98.9937C1259.81 104.935 1249.92 113.263 1242.71 123.983L1246.03 126.217ZM1274.04 102.6C1286.13 96.7498 1299.93 93.8 1315.47 93.8V89.8C1299.41 89.8 1285.01 92.8502 1272.3 98.9997L1274.04 102.6ZM1315.47 93.8C1331.24 93.8 1344.73 96.5598 1356 102.001L1357.74 98.3989C1345.81 92.6402 1331.7 89.8 1315.47 89.8V93.8ZM1356 102.001C1367.28 107.447 1375.88 115.095 1381.86 124.939L1385.28 122.861C1378.86 112.305 1369.66 104.153 1357.74 98.3989L1356 102.001ZM1381.87 124.963C1388.04 134.796 1391.17 146.514 1391.17 160.2H1395.17C1395.17 145.886 1391.89 133.404 1385.26 122.837L1381.87 124.963ZM1393.17 158.2H1344.87V162.2H1393.17V158.2ZM1346.87 160.2C1346.87 151.88 1343.96 145.178 1338.03 140.35L1335.51 143.45C1340.38 147.422 1342.87 152.92 1342.87 160.2H1346.87ZM1338.07 140.378C1332.21 135.387 1324.4 133 1314.87 133V137C1323.74 137 1330.53 139.213 1335.47 143.422L1338.07 140.378ZM1314.87 133C1304.79 133 1296.45 135.158 1290.02 139.662L1292.32 142.938C1297.88 139.042 1305.34 137 1314.87 137V133ZM1290 139.68C1283.66 144.271 1280.47 150.684 1280.47 158.7H1284.47C1284.47 151.916 1287.08 146.729 1292.34 142.92L1290 139.68ZM1280.47 158.7C1280.47 165.847 1282.37 171.627 1286.45 175.714L1289.28 172.886C1286.17 169.773 1284.47 165.153 1284.47 158.7H1280.47ZM1286.45 175.714C1290.45 179.706 1296.58 182.421 1304.57 184.059L1305.37 180.141C1297.75 178.579 1292.49 176.094 1289.28 172.886L1286.45 175.714ZM1304.56 184.058L1337.86 190.958L1338.67 187.042L1305.37 180.142L1304.56 184.058ZM1337.87 190.96C1357.45 194.915 1371.71 201.785 1380.93 211.385L1383.81 208.615C1373.83 198.215 1358.69 191.085 1338.66 187.04L1337.87 190.96ZM1380.94 211.4C1390.08 220.728 1394.77 233.869 1394.77 251.1H1398.77C1398.77 233.131 1393.86 218.872 1383.8 208.6L1380.94 211.4ZM1394.77 251.1C1394.77 264.955 1391.36 277.069 1384.59 287.512L1387.95 289.688C1395.18 278.531 1398.77 265.645 1398.77 251.1H1394.77ZM1384.6 287.498C1377.83 297.75 1368.24 305.717 1355.74 311.378L1357.39 315.022C1370.5 309.083 1380.71 300.65 1387.94 289.702L1384.6 287.498ZM1355.73 311.383C1343.45 317.038 1328.94 319.9 1312.17 319.9V323.9C1329.39 323.9 1344.49 320.962 1357.4 315.017L1355.73 311.383ZM1312.17 319.9C1295.99 319.9 1281.89 317.139 1269.79 311.677L1268.15 315.323C1280.85 321.061 1295.54 323.9 1312.17 323.9V319.9ZM1269.8 311.682C1257.91 306.222 1248.71 298.553 1242.13 288.691L1238.8 290.909C1245.83 301.447 1255.63 309.578 1268.13 315.318L1269.8 311.682ZM1242.16 288.728C1235.78 278.686 1232.57 266.968 1232.57 253.5H1228.57C1228.57 267.632 1231.95 280.114 1238.78 290.872L1242.16 288.728ZM1230.57 255.5H1278.87V251.5H1230.57V255.5ZM1276.87 253.5C1276.87 262.054 1280.01 268.874 1286.36 273.693L1288.78 270.507C1283.53 266.526 1280.87 260.946 1280.87 253.5H1276.87ZM1286.36 273.693C1292.64 278.458 1301.43 280.7 1312.47 280.7V276.7C1301.9 276.7 1294.1 274.542 1288.78 270.507L1286.36 273.693ZM1312.47 280.7C1323.68 280.7 1332.8 278.666 1339.63 274.396L1337.51 271.004C1331.54 274.734 1323.26 276.7 1312.47 276.7V280.7ZM1339.67 274.372C1346.57 269.843 1350.17 263.645 1350.17 255.9H1346.17C1346.17 262.155 1343.37 267.157 1337.47 271.028L1339.67 274.372ZM1350.17 255.9C1350.17 249.362 1348.48 244.009 1344.82 240.129L1341.91 242.871C1344.66 245.791 1346.17 250.038 1346.17 255.9H1350.17ZM1344.87 240.177C1341.44 236.286 1335.71 233.768 1328.14 232.335L1327.4 236.265C1334.62 237.632 1339.3 239.914 1341.87 242.823L1344.87 240.177ZM1328.17 232.34L1294.27 225.44L1293.47 229.36L1327.37 236.26L1328.17 232.34ZM1294.26 225.44C1274.74 221.496 1260.18 214.049 1250.35 203.253L1247.39 205.947C1257.96 217.551 1273.39 225.304 1293.47 229.36L1294.26 225.44ZM1250.36 203.268C1240.75 192.509 1235.87 178.318 1235.87 160.5H1231.87C1231.87 179.082 1236.98 194.291 1247.38 205.932L1250.36 203.268ZM1425.68 201.3L1423.97 200.271L1423.96 200.28L1425.68 201.3ZM1455.08 173.4L1454.15 171.628L1454.14 171.634L1455.08 173.4ZM1540.58 173.4L1539.64 175.165L1539.64 175.165L1540.58 173.4ZM1569.68 201.3L1567.95 202.308L1567.96 202.325L1567.97 202.342L1569.68 201.3ZM1569.68 284.1L1567.97 283.058L1567.97 283.069L1567.96 283.08L1569.68 284.1ZM1540.58 311.7L1539.64 309.935L1540.58 311.7ZM1455.08 311.7L1454.14 313.466L1454.15 313.472L1455.08 311.7ZM1425.68 284.1L1423.96 285.12L1423.97 285.131L1423.97 285.142L1425.68 284.1ZM1466.18 262.5L1464.4 263.419L1464.42 263.456L1464.44 263.492L1466.18 262.5ZM1479.08 275.7L1478.06 277.421L1478.09 277.435L1478.11 277.448L1479.08 275.7ZM1516.88 275.7L1517.85 277.448L1517.88 277.435L1517.9 277.421L1516.88 275.7ZM1529.48 262.5L1531.24 263.444L1531.25 263.432L1531.26 263.419L1529.48 262.5ZM1529.48 222.6L1531.24 221.656L1531.24 221.656L1529.48 222.6ZM1516.88 209.7L1515.86 211.421L1515.89 211.435L1515.91 211.448L1516.88 209.7ZM1479.08 209.7L1480.05 211.448L1480.08 211.435L1480.1 211.421L1479.08 209.7ZM1466.18 222.6L1464.44 221.608L1464.43 221.631L1464.42 221.656L1466.18 222.6ZM1417.18 242.7C1417.18 227.204 1420.61 213.767 1427.4 202.32L1423.96 200.28C1416.75 212.433 1413.18 226.596 1413.18 242.7H1417.18ZM1427.4 202.329C1434.41 190.642 1443.94 181.596 1456.02 175.165L1454.14 171.634C1441.42 178.404 1431.35 187.958 1423.97 200.271L1427.4 202.329ZM1456.01 175.172C1468.29 168.74 1482.26 165.5 1497.98 165.5V161.5C1481.7 161.5 1467.07 164.86 1454.15 171.628L1456.01 175.172ZM1497.98 165.5C1513.7 165.5 1527.57 168.74 1539.64 175.165L1541.52 171.634C1528.79 164.86 1514.26 161.5 1497.98 161.5V165.5ZM1539.64 175.165C1551.72 181.593 1561.14 190.632 1567.95 202.308L1571.41 200.292C1564.22 187.968 1554.24 178.407 1541.52 171.634L1539.64 175.165ZM1567.97 202.342C1574.96 213.785 1578.48 227.214 1578.48 242.7H1582.48C1582.48 226.586 1578.81 212.415 1571.39 200.258L1567.97 202.342ZM1578.48 242.7C1578.48 258.186 1574.96 271.615 1567.97 283.058L1571.39 285.142C1578.81 272.985 1582.48 258.814 1582.48 242.7H1578.48ZM1567.96 283.08C1561.15 294.557 1551.73 303.502 1539.64 309.935L1541.52 313.465C1554.24 306.698 1564.21 297.243 1571.4 285.12L1567.96 283.08ZM1539.64 309.935C1527.57 316.36 1513.7 319.6 1497.98 319.6V323.6C1514.26 323.6 1528.79 320.24 1541.52 313.465L1539.64 309.935ZM1497.98 319.6C1482.26 319.6 1468.29 316.36 1456.01 309.928L1454.15 313.472C1467.07 320.24 1481.7 323.6 1497.98 323.6V319.6ZM1456.02 309.935C1443.93 303.5 1434.4 294.548 1427.39 283.058L1423.97 285.142C1431.36 297.252 1441.43 306.7 1454.14 313.465L1456.02 309.935ZM1427.4 283.08C1420.61 271.633 1417.18 258.196 1417.18 242.7H1413.18C1413.18 258.804 1416.75 272.967 1423.96 285.12L1427.4 283.08ZM1459.68 242.4C1459.68 250.267 1461.24 257.292 1464.4 263.419L1467.96 261.581C1465.13 256.108 1463.68 249.733 1463.68 242.4H1459.68ZM1464.44 263.492C1467.81 269.384 1472.35 274.039 1478.06 277.421L1480.1 273.979C1475.01 270.961 1470.95 266.816 1467.92 261.508L1464.44 263.492ZM1478.11 277.448C1483.85 280.639 1490.5 282.2 1497.98 282.2V278.2C1491.06 278.2 1485.11 276.761 1480.05 273.952L1478.11 277.448ZM1497.98 282.2C1505.46 282.2 1512.11 280.639 1517.85 277.448L1515.91 273.952C1510.85 276.761 1504.9 278.2 1497.98 278.2V282.2ZM1517.9 277.421C1523.62 274.032 1528.07 269.362 1531.24 263.444L1527.72 261.556C1524.89 266.838 1520.94 270.968 1515.86 273.979L1517.9 277.421ZM1531.26 263.419C1534.43 257.292 1535.98 250.267 1535.98 242.4H1531.98C1531.98 249.733 1530.54 256.108 1527.7 261.581L1531.26 263.419ZM1535.98 242.4C1535.98 234.535 1534.43 227.598 1531.24 221.656L1527.72 223.544C1530.53 228.802 1531.98 235.065 1531.98 242.4H1535.98ZM1531.24 221.656C1528.07 215.727 1523.6 211.144 1517.85 207.952L1515.91 211.448C1520.96 214.256 1524.89 218.273 1527.72 223.544L1531.24 221.656ZM1517.9 207.979C1512.15 204.571 1505.49 202.9 1497.98 202.9V206.9C1504.88 206.9 1510.81 208.429 1515.86 211.421L1517.9 207.979ZM1497.98 202.9C1490.48 202.9 1483.81 204.571 1478.06 207.979L1480.1 211.421C1485.15 208.429 1491.09 206.9 1497.98 206.9V202.9ZM1478.11 207.952C1472.38 211.137 1467.82 215.705 1464.44 221.608L1467.92 223.592C1470.94 218.295 1474.99 214.263 1480.05 211.448L1478.11 207.952ZM1464.42 221.656C1461.23 227.598 1459.68 234.535 1459.68 242.4H1463.68C1463.68 235.065 1465.13 228.802 1467.94 223.544L1464.42 221.656ZM1609.67 201.3L1607.95 200.271L1607.95 200.28L1609.67 201.3ZM1639.07 173.4L1638.14 171.628L1638.13 171.634L1639.07 173.4ZM1724.57 173.4L1723.63 175.165L1723.63 175.165L1724.57 173.4ZM1753.67 201.3L1751.94 202.308L1751.95 202.325L1751.96 202.342L1753.67 201.3ZM1753.67 284.1L1751.96 283.058L1751.95 283.069L1751.95 283.08L1753.67 284.1ZM1724.57 311.7L1723.63 309.935L1724.57 311.7ZM1639.07 311.7L1638.13 313.466L1638.14 313.472L1639.07 311.7ZM1609.67 284.1L1607.95 285.12L1607.95 285.131L1607.96 285.142L1609.67 284.1ZM1650.17 262.5L1648.39 263.419L1648.41 263.456L1648.43 263.492L1650.17 262.5ZM1663.07 275.7L1662.05 277.421L1662.07 277.435L1662.09 277.448L1663.07 275.7ZM1700.87 275.7L1701.84 277.448L1701.86 277.435L1701.88 277.421L1700.87 275.7ZM1713.47 262.5L1715.23 263.444L1715.24 263.432L1715.24 263.419L1713.47 262.5ZM1713.47 222.6L1715.23 221.656L1715.23 221.656L1713.47 222.6ZM1700.87 209.7L1699.85 211.421L1699.87 211.435L1699.89 211.448L1700.87 209.7ZM1663.07 209.7L1664.04 211.448L1664.06 211.435L1664.08 211.421L1663.07 209.7ZM1650.17 222.6L1648.43 221.608L1648.42 221.631L1648.4 221.656L1650.17 222.6ZM1601.17 242.7C1601.17 227.204 1604.59 213.767 1611.39 202.32L1607.95 200.28C1600.74 212.433 1597.17 226.596 1597.17 242.7H1601.17ZM1611.38 202.329C1618.39 190.642 1627.92 181.596 1640 175.165L1638.13 171.634C1625.41 178.404 1615.34 187.958 1607.95 200.271L1611.38 202.329ZM1639.99 175.172C1652.27 168.74 1666.25 165.5 1681.97 165.5V161.5C1665.68 161.5 1651.06 164.86 1638.14 171.628L1639.99 175.172ZM1681.97 165.5C1697.68 165.5 1711.55 168.74 1723.63 175.165L1725.5 171.634C1712.78 164.86 1698.25 161.5 1681.97 161.5V165.5ZM1723.63 175.165C1735.7 181.593 1745.13 190.632 1751.94 202.308L1755.39 200.292C1748.2 187.968 1738.23 178.407 1725.5 171.634L1723.63 175.165ZM1751.96 202.342C1758.94 213.785 1762.47 227.214 1762.47 242.7H1766.47C1766.47 226.586 1762.79 212.415 1755.37 200.258L1751.96 202.342ZM1762.47 242.7C1762.47 258.186 1758.94 271.615 1751.96 283.058L1755.37 285.142C1762.79 272.985 1766.47 258.814 1766.47 242.7H1762.47ZM1751.95 283.08C1745.14 294.557 1735.71 303.502 1723.63 309.935L1725.5 313.465C1738.22 306.698 1748.19 297.243 1755.39 285.12L1751.95 283.08ZM1723.63 309.935C1711.55 316.36 1697.68 319.6 1681.97 319.6V323.6C1698.25 323.6 1712.78 320.24 1725.5 313.465L1723.63 309.935ZM1681.97 319.6C1666.25 319.6 1652.27 316.36 1639.99 309.928L1638.14 313.472C1651.06 320.24 1665.68 323.6 1681.97 323.6V319.6ZM1640 309.935C1627.92 303.5 1618.38 294.548 1611.37 283.058L1607.96 285.142C1615.35 297.252 1625.41 306.7 1638.13 313.465L1640 309.935ZM1611.39 283.08C1604.59 271.633 1601.17 258.196 1601.17 242.7H1597.17C1597.17 258.804 1600.74 272.967 1607.95 285.12L1611.39 283.08ZM1643.67 242.4C1643.67 250.267 1645.22 257.292 1648.39 263.419L1651.94 261.581C1649.11 256.108 1647.67 249.733 1647.67 242.4H1643.67ZM1648.43 263.492C1651.8 269.384 1656.34 274.039 1662.05 277.421L1664.08 273.979C1658.99 270.961 1654.93 266.816 1651.9 261.508L1648.43 263.492ZM1662.09 277.448C1667.84 280.639 1674.48 282.2 1681.97 282.2V278.2C1675.05 278.2 1669.09 276.761 1664.04 273.952L1662.09 277.448ZM1681.97 282.2C1689.45 282.2 1696.09 280.639 1701.84 277.448L1699.89 273.952C1694.84 276.761 1688.88 278.2 1681.97 278.2V282.2ZM1701.88 277.421C1707.6 274.032 1712.06 269.362 1715.23 263.444L1711.7 261.556C1708.87 266.838 1704.93 270.968 1699.85 273.979L1701.88 277.421ZM1715.24 263.419C1718.41 257.292 1719.97 250.267 1719.97 242.4H1715.97C1715.97 249.733 1714.52 256.108 1711.69 261.581L1715.24 263.419ZM1719.97 242.4C1719.97 234.535 1718.41 227.598 1715.23 221.656L1711.7 223.544C1714.52 228.802 1715.97 235.065 1715.97 242.4H1719.97ZM1715.23 221.656C1712.05 215.727 1707.58 211.144 1701.84 207.952L1699.89 211.448C1704.95 214.256 1708.88 218.273 1711.7 223.544L1715.23 221.656ZM1701.88 207.979C1696.13 204.571 1689.47 202.9 1681.97 202.9V206.9C1688.86 206.9 1694.8 208.429 1699.85 211.421L1701.88 207.979ZM1681.97 202.9C1674.46 202.9 1667.8 204.571 1662.05 207.979L1664.08 211.421C1669.13 208.429 1675.07 206.9 1681.97 206.9V202.9ZM1662.09 207.952C1656.36 211.137 1651.8 215.705 1648.43 221.608L1651.9 223.592C1654.93 218.295 1658.97 214.263 1664.04 211.448L1662.09 207.952ZM1648.4 221.656C1645.22 227.598 1643.67 234.535 1643.67 242.4H1647.67C1647.67 235.065 1649.11 228.802 1651.93 223.544L1648.4 221.656ZM1837.45 318V320H1839.45V318H1837.45ZM1791.25 318H1789.25V320H1791.25V318ZM1791.25 168V166H1789.25V168H1791.25ZM1834.75 168L1836.71 167.622L1836.4 166H1834.75V168ZM1837.75 183.6L1835.79 183.978L1836.66 188.539L1839.37 184.767L1837.75 183.6ZM1856.65 168.6L1855.85 166.769L1855.84 166.772L1855.83 166.776L1856.65 168.6ZM1925.05 179.7L1923.56 181.03L1923.57 181.045L1923.58 181.059L1925.05 179.7ZM1940.05 318V320H1942.05V318H1940.05ZM1893.85 318H1891.85V320H1893.85V318ZM1886.65 213.9L1885.11 215.175L1885.12 215.188L1885.13 215.202L1886.65 213.9ZM1845.55 213.6L1846.96 215.014L1846.98 215.001L1846.99 214.988L1845.55 213.6ZM1837.45 316H1791.25V320H1837.45V316ZM1793.25 318V168H1789.25V318H1793.25ZM1791.25 170H1834.75V166H1791.25V170ZM1832.79 168.378L1835.79 183.978L1839.71 183.222L1836.71 167.622L1832.79 168.378ZM1839.37 184.767C1843.75 178.684 1849.75 173.896 1857.47 170.424L1855.83 166.776C1847.55 170.504 1840.95 175.716 1836.13 182.433L1839.37 184.767ZM1857.45 170.431C1865.38 166.953 1874.1 165.2 1883.65 165.2V161.2C1873.6 161.2 1864.32 163.047 1855.85 166.769L1857.45 170.431ZM1883.65 165.2C1901.01 165.2 1914.21 170.544 1923.56 181.03L1926.54 178.37C1916.29 166.856 1901.89 161.2 1883.65 161.2V165.2ZM1923.58 181.059C1933.14 191.38 1938.05 206.033 1938.05 225.3H1942.05C1942.05 205.367 1936.96 189.62 1926.52 178.341L1923.58 181.059ZM1938.05 225.3V318H1942.05V225.3H1938.05ZM1940.05 316H1893.85V320H1940.05V316ZM1895.85 318V236.4H1891.85V318H1895.85ZM1895.85 236.4C1895.85 226.657 1893.36 218.651 1888.17 212.598L1885.13 215.202C1889.54 220.349 1891.85 227.343 1891.85 236.4H1895.85ZM1888.19 212.625C1882.98 206.334 1876 203.2 1867.45 203.2V207.2C1874.9 207.2 1880.72 209.866 1885.11 215.175L1888.19 212.625ZM1867.45 203.2C1857.81 203.2 1849.96 206.15 1844.11 212.212L1846.99 214.988C1851.94 209.85 1858.69 207.2 1867.45 207.2V203.2ZM1844.14 212.186C1838.28 218.044 1835.45 226 1835.45 235.8H1839.45C1839.45 226.8 1842.02 219.956 1846.96 215.014L1844.14 212.186ZM1835.45 235.8V318H1839.45V235.8H1835.45Z" fill="url(#paint1_linear_21_21)" mask="url(#path-1-outside-1_21_21)"/>
<defs>
<linearGradient id="paint0_linear_21_21" x1="0" y1="0" x2="1615.68" y2="971.171" gradientUnits="userSpaceOnUse">
<stop offset="0.1875" stop-color="#8AB9FF"/>
<stop offset="0.484375" stop-color="#72C6BC" stop-opacity="0.27"/>
<stop offset="0.760417" stop-color="#DD95FF"/>
</linearGradient>
<linearGradient id="paint1_linear_21_21" x1="0" y1="0" x2="1615.68" y2="971.171" gradientUnits="userSpaceOnUse">
<stop offset="0.161458" stop-color="#A6C9FF"/>
<stop offset="0.484375" stop-color="#8ED6CD"/>
<stop offset="0.8125" stop-color="#E7B3FF"/>
</linearGradient>
</defs>
</svg>
